<?xml version="1.0" encoding="UTF-8" standalone="no"?>
<!-- Created with Inkscape (http://www.inkscape.org/) -->

<svg
   xmlns:dc="http://purl.org/dc/elements/1.1/"
   xmlns:cc="http://creativecommons.org/ns#"
   xmlns:rdf="http://www.w3.org/1999/02/22-rdf-syntax-ns#"
   xmlns:svg="http://www.w3.org/2000/svg"
   xmlns="http://www.w3.org/2000/svg"
   version="1.1"
   width="0.333in"
   height="0.333in"
   viewBox="0 0 10240 10240"
   id="svg2"
   xml:space="preserve"
   style="fill-rule:nonzero"><title
   id="title4">nav_plain icon</title><desc
   id="desc6">nav_plain icon from the IconExperience.com O-Collection. Copyright by INCORS GmbH (www.incors.com).</desc><metadata
   id="metadata13"><rdf:RDF><cc:Work
       rdf:about=""><dc:format>image/svg+xml</dc:format><dc:type
         rdf:resource="http://purl.org/dc/dcmitype/StillImage" /><dc:title>nav_plain icon</dc:title></cc:Work></rdf:RDF></metadata><defs
   id="defs11" />
	
	
	<path
   d="M 640,5120 C 640,2646 2646,640 5120,640 7594,640 9600,2646 9600,5120 9600,7594 7594,9600 5120,9600 2646,9600 640,7594 640,5120 z M 5120,1280 c -2121,0 -3840,1719 -3840,3840 0,2121 1719,3840 3840,3840 2121,0 3840,-1719 3840,-3840 0,-2121 -1719,-3840 -3840,-3840 z"
   id="curve0"
   style="fill:#4d82b8" />
<path
   d="M 4193.2577,2974.8526 7348.216,4733.4527 c 113.4404,63.0224 178.1069,172.0787 178.1069,299.7676 0,127.689 -64.6665,236.7452 -178.1069,299.7676 L 4193.2577,7091.5881 c -111.7964,61.9264 -238.9373,61.3784 -350.1856,-2.1921 -111.2483,-63.5704 -174.8188,-171.5306 -174.8188,-298.1235 l 0,-3516.1043 c 0,-126.5929 63.5705,-234.5531 174.8188,-298.1235 111.2483,-63.5705 238.3892,-64.1185 350.1856,-2.1921 z"
   id="curve0-2"
   style="fill:#4d82b8" /></svg>
