<svg xmlns="http://www.w3.org/2000/svg" enable-background="new 0 0 512 512" viewBox="0 0 512 512" x="0px" y="0px" xmlns:xml="http://www.w3.org/XML/1998/namespace" xml:space="preserve" xmlns:xlink="http://www.w3.org/1999/xlink" version="1.1"> <path id="gear-2-icon" d="M 311.546 256 c 0 30.628 -24.918 55.546 -55.546 55.546 c -30.629 0 -55.548 -24.918 -55.548 -55.546 c 0 -30.629 24.919 -55.547 55.548 -55.547 C 286.628 200.453 311.546 225.371 311.546 256 Z M 462 228.257 v 55.485 l -29.963 10.655 c -11.449 4.071 -20.643 12.796 -25.297 24.021 c -0.002 0.005 -0.004 0.009 -0.006 0.014 c -4.653 11.218 -4.328 23.908 0.886 34.877 l 13.66 28.737 l -39.234 39.234 l -28.902 -13.738 c -10.884 -5.174 -23.451 -5.491 -34.578 -0.863 c -0.005 0.002 -0.009 0.004 -0.014 0.006 c -11.308 4.701 -20.113 13.987 -24.216 25.525 L 283.741 462 h -55.484 l -10.663 -29.984 c -4.068 -11.438 -12.784 -20.621 -23.998 -25.271 c -0.004 -0.002 -0.009 -0.004 -0.014 -0.006 c -11.229 -4.657 -23.93 -4.33 -34.909 0.889 l -28.721 13.652 l -39.234 -39.234 l 13.654 -28.723 c 5.222 -10.985 5.548 -23.67 0.888 -34.906 c -0.002 -0.004 -0.003 -0.009 -0.005 -0.014 c -4.647 -11.206 -13.844 -19.935 -25.274 -24 L 50 283.742 v -55.485 l 29.982 -10.662 c 11.438 -4.067 20.622 -12.784 25.271 -23.998 c 0.002 -0.004 0.004 -0.009 0.006 -0.013 c 4.656 -11.229 4.33 -23.931 -0.889 -34.91 l -13.653 -28.721 l 39.234 -39.234 l 28.723 13.653 c 10.986 5.222 23.67 5.548 34.905 0.889 c 0.005 -0.001 0.009 -0.003 0.014 -0.005 c 11.207 -4.646 19.936 -13.843 24.001 -25.274 L 228.257 50 h 55.484 l 10.663 29.982 c 4.067 11.438 12.785 20.623 24 25.273 c 0.004 0.002 0.009 0.003 0.014 0.005 c 11.229 4.657 23.93 4.33 34.908 -0.889 l 28.72 -13.652 l 39.234 39.234 l -13.653 28.724 c -5.222 10.985 -5.548 23.668 -0.889 34.903 c 0.002 0.004 0.004 0.009 0.006 0.013 c 4.646 11.208 13.844 19.937 25.274 24.001 L 462 228.257 Z M 351.546 256 c 0 -52.685 -42.861 -95.547 -95.546 -95.547 c -52.686 0 -95.548 42.862 -95.548 95.547 s 42.862 95.546 95.548 95.546 C 308.685 351.546 351.546 308.685 351.546 256 Z" /> </svg>