<?xml version="1.0" encoding="utf-8"?>

<!-- License Agreement at http://iconmonstr.com/license/ -->

<!DOCTYPE svg PUBLIC "-//W3C//DTD SVG 1.1//EN" "http://www.w3.org/Graphics/SVG/1.1/DTD/svg11.dtd">
<svg version="1.1" xmlns="http://www.w3.org/2000/svg" xmlns:xlink="http://www.w3.org/1999/xlink" x="0px" y="0px"
	 width="512px" height="512px" viewBox="0 0 512 512" enable-background="new 0 0 512 512" xml:space="preserve">
<path id="tools-8-icon" d="M300.666,204.326l-27.43-27.407l116.02-116.021l72.607,72.608l-116.02,116.02l-14.404-14.402
	l101.615-101.617l-43.799-43.799l-49.588,49.586l12.973,12.975l-7.201,7.201l-12.973-12.973l-7.822,7.82l12.973,12.975l-7.201,7.201
	l-12.973-12.973l-7.566,7.565l13.014,13.017l-7.201,7.201l-13.016-13.015l-7.82,7.82l13.014,13.017L300.666,204.326z
	 M406.016,133.786c0-9.491-7.697-17.186-17.188-17.186s-17.188,7.694-17.188,17.186c0,9.493,7.697,17.188,17.188,17.188
	S406.016,143.279,406.016,133.786z M333.806,414.693l68.981-68.981l-225.42-225.421l-68.982,68.981L333.806,414.693z
	 M157.811,100.734l-38.691-38.691l-68.982,68.981l38.689,38.69L157.811,100.734z M353.406,434.21l86.312,15.93l-17.413-84.829
	L353.406,434.21z M144.266,422.295l-43.799-43.799l11.561-11.56l13.025,13.023l7.201-7.201l-13.023-13.026l7.873-7.873
	l13.014,13.014l7.201-7.201l-13.012-13.015l7.82-7.821l13.014,13.014l7.201-7.201l-13.012-13.015l7.566-7.567l12.971,12.971
	l7.201-7.201l-12.971-12.971l7.822-7.822l12.971,12.971l7.201-7.201l-27.33-27.421l-93.104,93.104l72.607,72.606l93.105-93.104
	l-14.404-14.402L144.266,422.295z"/>
</svg>
